<svg class="_a6en" viewBox="0 0 38 38" fill="none" xmlns="http://www.w3.org/2000/svg"><path opacity="0.4" fill-rule="evenodd" clip-rule="evenodd" d="M19 37C9.05887 37 1 28.9411 1 19C1 9.05887 9.05887 1 19 1C28.9411 1 37 9.05887 37 19C37 28.9411 28.9411 37 19 37Z" stroke="CurrentColor"></path><path class="_arc3" d="M16.3102 12.2707L26.1574 12.2707L26.1574 22.1179L24.4338 22.135L24.4335 15.2256L13.3883 26.2707L12.1574 25.0398L23.1858 14.0114L16.3102 14.0115L16.3102 12.2707Z" fill="CurrentColor"></path><path class="_arc4" d="M16.3102 12.2707L26.1574 12.2707L26.1574 22.1179L24.4338 22.135L24.4335 15.2256L13.3883 26.2707L12.1574 25.0398L23.1858 14.0114L16.3102 14.0115L16.3102 12.2707Z" fill="CurrentColor"></path></svg>