<svg xmlns="http://www.w3.org/2000/svg" viewBox="0 0 24 24" fill="currentColor" width="1em" height="1em" class="x1lliihq x174y0p0 xxk0z11 xvy4d1p" role="img" aria-label="Empty bag"><path fill-rule="evenodd" clip-rule="evenodd" d="M10 5a2 2 0 1 1 4 0v1h-4V5zM8 8v2a1 1 0 1 0 2 0V8h4v2a1 1 0 1 0 2 0V8h.624a1 1 0 0 1 .973.771l.34 1.442A40.001 40.001 0 0 1 19 19.375V20a1 1 0 0 1-1 1H6a1 1 0 0 1-1-1v-.625c0-3.085.357-6.16 1.063-9.162l.34-1.442A1 1 0 0 1 7.376 8H8zm0-2V5a4 4 0 1 1 8 0v1h.624a3 3 0 0 1 2.92 2.313l.34 1.442A41.995 41.995 0 0 1 21 19.375V20a3 3 0 0 1-3 3H6a3 3 0 0 1-3-3v-.625a42 42 0 0 1 1.116-9.62l.34-1.442A3 3 0 0 1 7.376 6H8z"></path></svg>